<svg width="24" height="24" viewBox="0 0 24 24" fill="none" xmlns="http://www.w3.org/2000/svg">
<mask id="mask0" mask-type="alpha" maskUnits="userSpaceOnUse" x="0" y="0" width="24" height="24">
<path fill-rule="evenodd" clip-rule="evenodd" d="M16.0686 15.0943H17.1527L24 21.9554L21.9554 24L15.0943 17.1527V16.0686L14.7238 15.6844C13.1595 17.0292 11.1286 17.8388 8.91938 17.8388C3.99314 17.8388 0 13.8456 0 8.91938C0 3.99314 3.99314 0 8.91938 0C13.8456 0 17.8388 3.99314 17.8388 8.91938C17.8388 11.1286 17.0292 13.1595 15.6844 14.7238L16.0686 15.0943ZM2.82349 9.17646C2.82349 12.6918 5.66113 15.5294 9.17643 15.5294C12.6917 15.5294 15.5294 12.6918 15.5294 9.17646C15.5294 5.66117 12.6917 2.82352 9.17643 2.82352C5.66113 2.82352 2.82349 5.66117 2.82349 9.17646Z" fill="#7a8c99"/>
</mask>
<g mask="url(#mask0)">
<rect y="-5" width="38.1494" height="33.3095" fill="#7a8c99"/>
</g>
</svg>
